<?xml version="1.0" encoding="utf-8"?>
<!-- Generator: Adobe Illustrator 22.1.0, SVG Export Plug-In . SVG Version: 6.00 Build 0)  -->
<svg version="1.1" id="Layer_1" xmlns="http://www.w3.org/2000/svg" xmlns:xlink="http://www.w3.org/1999/xlink" x="0px" y="0px"
	 viewBox="0 0 600 600" style="enable-background:new 0 0 600 600;" xml:space="preserve">
<style type="text/css">
	.st0{fill:none;}
	.st1{font-family:'MyriadPro-Regular';}
	.st2{font-size:72px;}
	.st3{display:none;fill:none;stroke:#000000;stroke-width:10;stroke-miterlimit:10;}
	.st4{fill:none;stroke:#000000;stroke-width:10;stroke-miterlimit:10;}
</style>
<g>
	<path d="M300,20c37.8,0,74.5,7.4,109,22c33.3,14.1,63.3,34.3,89,60s45.9,55.7,60,89c14.6,34.5,22,71.2,22,109s-7.4,74.5-22,109
		c-14.1,33.3-34.3,63.3-60,89s-55.7,45.9-89,60c-34.5,14.6-71.2,22-109,22s-74.5-7.4-109-22c-33.3-14.1-63.3-34.3-89-60
		s-45.9-55.7-60-89c-14.6-34.5-22-71.2-22-109s7.4-74.5,22-109c14.1-33.3,34.3-63.3,60-89s55.7-45.9,89-60
		C225.5,27.4,262.2,20,300,20 M300,0C134.3,0,0,134.3,0,300s134.3,300,300,300s300-134.3,300-300S465.7,0,300,0L300,0z"/>
</g>
<rect x="264" y="30" class="st0" width="87" height="60"/>
<text id="_x31_2" transform="matrix(1 0 0 1 264 81.1191)" class="st1 st2">12</text>
<rect x="257" y="516" class="st0" width="87" height="60"/>
<text transform="matrix(1 0 0 1 282.0327 567.1191)" class="st1 st2">6</text>
<rect x="506" y="275" class="st0" width="87" height="60"/>
<text transform="matrix(1 0 0 1 531.0327 326.1191)" class="st1 st2">3</text>
<rect x="10" y="275" class="st0" width="87" height="60"/>
<text transform="matrix(1 0 0 1 35.0327 326.1191)" class="st1 st2">9</text>
<line class="st3" x1="40.2" y1="150" x2="559.8" y2="450"/>
<line class="st3" x1="150" y1="559.8" x2="450" y2="40.2"/>
<line class="st4" x1="163" y1="63" x2="198" y2="124"/>
<line class="st4" x1="399" y1="472" x2="434" y2="533"/>
<line class="st4" x1="537" y1="164" x2="476" y2="199"/>
<line class="st4" x1="127" y1="400" x2="66" y2="435"/>
<line class="st4" x1="438" y1="64" x2="401" y2="123"/>
<line class="st4" x1="537" y1="436" x2="475" y2="402"/>
<line class="st4" x1="126" y1="198" x2="64" y2="164"/>
<line class="st4" x1="202" y1="473" x2="165" y2="532"/>
</svg>
